<svg width="68" height="55" viewBox="0 0 68 55" fill="none" xmlns="http://www.w3.org/2000/svg">
<path d="M52.75 48.75L43.7021 39.7021M43.7021 39.7021C45.2498 38.1544 46.4775 36.317 47.3151 34.2949C48.1527 32.2727 48.5838 30.1054 48.5838 27.9167C48.5838 25.7279 48.1527 23.5606 47.3151 21.5384C46.4775 19.5163 45.2498 17.6789 43.7021 16.1313C42.1544 14.5836 40.317 13.3559 38.2949 12.5183C36.2727 11.6807 34.1054 11.2496 31.9167 11.2496C29.7279 11.2496 27.5606 11.6807 25.5384 12.5183C23.5163 13.3559 21.6789 14.5836 20.1313 16.1313C17.0056 19.2569 15.2496 23.4963 15.2496 27.9167C15.2496 32.3371 17.0056 36.5764 20.1313 39.7021C23.2569 42.8278 27.4963 44.5838 31.9167 44.5838C36.3371 44.5838 40.5764 42.8278 43.7021 39.7021Z" stroke="#2C2B2B" stroke-width="2.08333" stroke-linecap="round" stroke-linejoin="round"/>
</svg>
